<?xml version="1.0" standalone="no"?>
<!DOCTYPE svg PUBLIC "-//W3C//DTD SVG 20010904//EN"
 "http://www.w3.org/TR/2001/REC-SVG-20010904/DTD/svg10.dtd">
<svg version="1.0" xmlns="http://www.w3.org/2000/svg"
 width="1563.000000pt" height="1563.000000pt" viewBox="0 0 1563.000000 1563.000000"
 preserveAspectRatio="xMidYMid meet">
<metadata>
Created by potrace 1.14, written by Peter Selinger 2001-2017
</metadata>
<g transform="translate(0.000000,1563.000000) scale(0.100000,-0.100000)"
fill="#000000" stroke="none">
<path d="M10159 12203 c9 -18 9 -23 0 -23 -7 0 -4 -9 7 -22 19 -23 19 -23 -2
-5 -11 9 -24 14 -29 10 -4 -5 -6 -3 -2 2 3 6 2 17 -3 24 -6 10 -9 8 -15 -8 -7
-24 -22 -28 -22 -6 0 8 4 12 9 9 4 -3 8 0 8 5 0 6 -4 11 -9 11 -14 0 -31 -26
-23 -36 4 -4 -1 -2 -10 5 -20 15 -24 26 -6 15 6 -4 8 -3 5 4 -4 5 -15 9 -25 7
-9 -2 -19 -4 -21 -4 -2 -1 4 -10 14 -21 17 -19 17 -19 -8 -7 -14 6 -23 16 -19
22 3 5 -1 4 -10 -2 -8 -7 -18 -9 -23 -5 -4 4 -2 -4 5 -17 10 -19 10 -22 -2
-15 -21 14 -46 15 -54 2 -4 -7 -3 -8 4 -4 7 4 20 3 29 -3 17 -9 16 -10 -2 -11
-55 -1 -78 -8 -87 -26 -9 -18 -8 -18 5 -1 13 15 15 15 20 2 4 -8 3 -14 -1 -13
-15 3 -42 -14 -36 -23 3 -5 0 -8 -8 -7 -7 2 -12 -2 -11 -9 2 -7 -4 -10 -12 -7
-12 5 -13 2 -8 -12 7 -18 6 -18 -11 -1 -14 13 -21 15 -32 6 -7 -6 -18 -8 -25
-4 -8 6 -8 2 0 -14 10 -18 9 -21 -10 -21 -19 0 -20 -2 -8 -17 13 -15 12 -15
-8 -5 -16 9 -24 9 -29 0 -4 -6 -3 -8 4 -4 6 3 13 2 17 -4 3 -5 1 -10 -5 -10
-7 0 -10 -6 -7 -13 3 -8 -1 -14 -8 -14 -7 0 -11 6 -8 13 2 6 0 15 -5 18 -5 3
-9 -2 -8 -12 0 -9 -5 -16 -12 -14 -8 1 -11 -2 -7 -8 3 -6 10 -8 15 -5 5 3 11
1 14 -4 4 -5 -3 -12 -14 -16 -11 -3 -19 -12 -17 -18 1 -7 -6 -11 -17 -10 -12
1 -15 -2 -8 -9 7 -7 17 -6 30 1 16 8 23 8 28 -1 4 -7 4 -10 -1 -6 -13 12 -45
-11 -38 -28 4 -11 0 -14 -21 -10 -14 2 -29 0 -32 -6 -4 -7 -2 -8 4 -4 7 4 12
2 12 -4 0 -6 4 -9 8 -6 5 3 9 -1 9 -9 0 -10 -5 -11 -19 -4 -11 6 -18 6 -18 0
0 -5 6 -12 13 -14 7 -4 6 -6 -4 -6 -9 -1 -23 -9 -30 -18 -13 -16 -12 -17 4 -4
11 9 17 10 17 2 0 -6 -4 -12 -10 -12 -5 -1 -15 -2 -22 -3 -6 0 -13 -7 -16 -15
-3 -9 0 -11 8 -6 9 6 11 4 6 -4 -5 -7 -9 -11 -11 -9 -28 28 -63 83 -58 91 3 6
1 7 -5 3 -6 -3 -14 0 -19 7 -4 7 -16 17 -26 20 -11 4 -15 12 -11 18 4 8 3 9
-5 5 -6 -4 -9 -12 -6 -17 4 -5 -1 -9 -9 -9 -8 0 -18 5 -22 12 -5 7 -3 8 6 3 9
-6 11 -4 6 4 -5 7 -10 10 -13 7 -3 -3 -14 -1 -24 5 -14 7 -19 6 -19 -3 0 -9
-3 -9 -10 2 -5 8 -10 20 -10 25 0 6 4 4 9 -4 5 -7 11 -9 14 -4 3 5 -3 15 -15
22 -11 7 -17 8 -13 2 3 -6 1 -11 -6 -11 -6 0 -18 -8 -25 -17 -12 -15 -13 -16
-8 -2 6 18 -4 28 -36 34 -12 2 -18 0 -15 -6 4 -5 10 -7 15 -4 5 3 12 0 16 -7
4 -7 4 -10 -1 -6 -4 4 -15 2 -23 -5 -10 -8 -13 -8 -9 -1 4 7 0 15 -9 18 -8 3
-12 2 -9 -3 3 -5 0 -13 -6 -17 -8 -5 -9 -3 -4 5 5 9 0 12 -18 9 -15 -1 -26 0
-27 4 -1 17 -47 53 -67 54 -17 0 -20 -3 -12 -12 6 -7 16 -11 24 -8 17 7 29
-12 14 -22 -8 -5 -9 -3 -4 6 5 9 2 10 -14 5 -11 -3 -21 -2 -21 3 0 17 -32 23
-48 10 -13 -11 -14 -10 -4 9 7 12 12 24 12 26 0 8 -29 2 -37 -8 -4 -4 -2 -5 6
0 10 6 12 4 6 -4 -5 -9 -11 -9 -17 -3 -6 6 -18 8 -27 5 -13 -4 -14 -3 -1 5 8
6 17 9 20 7 4 -2 7 2 7 10 0 8 -3 13 -5 10 -3 -3 -11 3 -19 13 -13 15 -13 14
-2 -7 10 -22 9 -23 -10 -18 -20 5 -26 -4 -21 -28 1 -5 -2 -6 -7 -2 -4 5 -8 13
-8 18 0 5 -4 9 -9 8 -5 0 -13 5 -17 13 -7 10 -9 10 -9 0 0 -9 -5 -10 -19 -3
-14 8 -22 7 -31 -4 -13 -16 -35 -21 -25 -6 3 5 0 13 -6 17 -7 4 -9 3 -6 -3 8
-12 -16 -36 -26 -27 -3 4 -4 -5 -1 -20 4 -26 -9 -36 -22 -15 -4 8 -9 7 -16 -2
-6 -10 -7 -7 -3 9 4 13 2 22 -4 22 -6 0 -11 -10 -11 -22 0 -18 -2 -20 -9 -8
-6 8 -7 18 -5 22 3 4 -7 3 -21 -2 -32 -12 -58 -12 -30 0 12 5 14 9 6 9 -11 1
-10 5 5 17 18 14 17 14 -6 2 -34 -17 -57 -18 -57 -2 0 10 4 11 12 4 9 -7 17
-5 26 7 13 16 12 17 -3 4 -13 -10 -18 -10 -18 -2 0 8 -8 10 -21 6 -12 -4 -19
-3 -16 2 3 5 1 15 -5 23 -8 12 -9 12 -4 -2 3 -10 1 -18 -4 -18 -6 0 -10 4 -10
9 0 11 -59 20 -62 9 -2 -5 -15 -11 -30 -13 -21 -4 -28 0 -33 17 -7 19 -8 19
-17 4 -5 -9 -14 -14 -19 -11 -5 4 -6 11 -3 17 4 6 2 8 -4 5 -5 -4 -8 -16 -5
-27 4 -16 2 -19 -13 -13 -18 6 -18 5 1 -18 15 -18 11 -16 -13 5 -17 17 -32 26
-32 22 0 -5 -8 -2 -17 5 -11 10 -14 10 -9 2 4 -8 1 -13 -9 -13 -13 0 -14 4 -5
23 10 20 10 20 -3 5 -10 -13 -16 -15 -25 -6 -7 7 -12 8 -12 3 0 -6 -5 -3 -11
5 -9 13 -10 13 -6 0 2 -8 10 -14 16 -12 7 1 10 -2 7 -7 -7 -11 -36 -7 -62 7
-15 8 -15 10 0 15 10 4 15 3 11 -3 -3 -6 -1 -10 5 -10 7 0 10 6 7 13 -2 6 -10
11 -17 9 -7 -2 -10 3 -7 12 4 9 2 18 -4 21 -5 4 -9 3 -8 -2 3 -20 -2 -33 -13
-31 -7 2 -11 -4 -10 -12 2 -8 0 -11 -4 -7 -11 11 -14 38 -3 31 5 -3 9 0 9 5 0
16 -11 13 -33 -6 -11 -10 -17 -13 -14 -6 5 7 1 12 -10 11 -10 0 -30 2 -46 5
-16 3 -25 2 -22 -4 4 -5 10 -7 15 -4 4 3 11 -2 14 -10 4 -12 2 -13 -13 -6 -10
6 -21 7 -25 4 -3 -3 -6 1 -6 9 0 12 -10 15 -42 14 -27 -1 -43 3 -43 11 0 6 -3
14 -7 18 -10 11 -3 -17 11 -45 10 -18 10 -22 1 -13 -7 6 -19 9 -26 6 -8 -3
-14 0 -14 7 0 6 5 8 12 4 7 -5 8 -3 3 6 -6 10 -11 10 -20 -3 -13 -18 -31 -24
-20 -8 3 5 1 13 -5 16 -6 4 -9 1 -8 -7 2 -7 -3 -12 -10 -10 -8 1 -11 -2 -7 -8
3 -6 12 -7 18 -4 9 5 9 4 1 -5 -9 -10 -17 -10 -32 -2 -32 17 -37 13 -11 -9 23
-18 23 -19 3 -15 -11 2 -27 -1 -34 -5 -8 -5 -22 -4 -33 2 -12 6 -17 6 -13 0 3
-5 -1 -15 -8 -21 -11 -9 -16 -9 -22 0 -4 7 -3 9 4 6 6 -5 8 1 4 15 -4 16 -7
18 -10 8 -3 -8 -10 -21 -16 -29 -9 -12 -8 -13 3 -6 10 6 12 4 7 -4 -5 -7 -11
-10 -14 -7 -3 3 -13 -1 -23 -10 -14 -13 -21 -13 -41 -3 -21 11 -22 11 -9 -5 8
-9 11 -19 7 -23 -3 -3 -6 -1 -6 5 0 7 -10 12 -22 12 -19 0 -20 2 -8 10 8 5 10
10 4 10 -18 0 -24 -12 -13 -26 8 -9 5 -11 -10 -7 -13 3 -21 1 -21 -6 0 -7 5
-9 12 -5 6 4 8 3 5 -4 -8 -12 -32 -10 -44 3 -4 4 -3 5 3 2 6 -3 11 0 11 8 0
11 -4 12 -13 4 -7 -6 -11 -16 -8 -23 3 -7 -2 -13 -10 -13 -8 0 -13 5 -12 11 2
6 1 8 -1 4 -3 -5 -13 -3 -24 3 -15 7 -19 7 -17 -3 2 -7 -2 -12 -9 -11 -7 2
-10 -9 -8 -30 3 -29 3 -30 -7 -9 -6 12 -14 22 -19 22 -4 0 -5 -10 -2 -22 4
-23 4 -23 -10 1 -11 19 -15 21 -20 7 -3 -8 -1 -18 5 -22 7 -5 5 -12 -7 -21
-13 -8 -14 -13 -5 -13 7 0 10 -3 7 -6 -4 -4 -13 -1 -22 6 -12 10 -16 9 -21 -4
-5 -12 -10 -14 -19 -6 -10 8 -15 8 -21 -1 -4 -8 -3 -9 4 -5 7 4 12 2 12 -3 0
-6 -9 -11 -21 -11 -13 0 -18 4 -13 13 4 6 3 8 -1 4 -10 -8 -16 -31 -18 -64 0
-12 -5 -19 -9 -17 -4 3 -8 0 -8 -5 0 -6 -5 -11 -11 -11 -5 0 -7 5 -4 10 3 6
-1 10 -10 10 -9 0 -13 -4 -10 -10 3 -5 1 -10 -4 -10 -6 0 -11 -4 -11 -10 0 -5
8 -7 18 -3 9 3 14 3 11 -1 -4 -4 -16 -8 -27 -11 -11 -2 -29 -8 -40 -14 -11 -6
-23 -7 -28 -3 -5 4 -5 3 -1 -2 9 -12 37 -17 37 -7 0 4 9 7 20 8 11 1 20 -3 20
-8 0 -6 -4 -8 -9 -4 -5 3 -17 -2 -25 -11 -9 -9 -16 -11 -16 -4 0 6 -5 8 -10 5
-6 -4 -7 -11 -4 -17 4 -7 2 -8 -4 -4 -7 4 -12 2 -12 -4 0 -6 -5 -8 -11 -5 -6
5 -4 12 8 21 17 13 16 13 -7 10 -26 -4 -27 -7 -14 -41 l7 -20 -16 20 c-16 20
-16 20 -13 -1 3 -16 -1 -20 -23 -18 -17 1 -28 -3 -28 -12 0 -7 5 -10 10 -7 5
3 7 0 5 -8 -3 -8 -13 -13 -23 -11 -9 2 -14 -1 -11 -7 4 -5 1 -13 -5 -17 -8 -4
-9 -3 -5 4 4 7 3 12 -2 12 -6 0 -13 -7 -16 -16 -4 -10 -14 -14 -26 -11 -16 4
-18 2 -11 -12 10 -17 1 -41 -15 -44 -5 -1 -8 -6 -6 -11 2 -5 -5 -3 -14 5 -16
13 -16 12 -5 -10 7 -13 8 -21 3 -17 -6 3 -13 2 -17 -4 -9 -15 -28 -12 -19 3 4
7 3 9 -2 4 -5 -5 -9 -13 -9 -17 0 -5 -9 -16 -20 -24 -16 -12 -17 -17 -7 -24
11 -7 10 -10 -3 -16 -9 -3 -13 -11 -9 -17 4 -8 0 -8 -15 0 -16 9 -21 9 -21 0
0 -7 -3 -9 -7 -6 -3 4 -13 -2 -20 -13 -8 -11 -18 -18 -23 -15 -4 3 -7 -3 -5
-12 2 -10 4 -22 4 -28 1 -5 6 -3 11 5 8 13 12 12 27 -4 11 -12 12 -16 3 -10
-10 8 -22 7 -37 -1 -17 -9 -19 -15 -11 -29 8 -15 8 -17 -2 -11 -10 6 -12 3 -6
-10 5 -15 4 -16 -9 -5 -12 10 -15 10 -15 -3 0 -8 -7 -18 -16 -21 -11 -4 -14
-13 -11 -27 4 -16 3 -18 -8 -9 -8 7 -15 7 -19 1 -4 -5 2 -15 11 -21 15 -10 15
-11 1 -6 -13 4 -16 -2 -14 -29 2 -19 -1 -32 -6 -29 -5 3 -7 12 -4 20 3 8 0 11
-10 7 -15 -6 -18 -16 -7 -27 5 -4 8 -13 8 -19 0 -17 -46 -67 -56 -61 -5 3 -9
0 -9 -6 0 -6 -5 -8 -11 -4 -7 4 -7 -1 1 -16 11 -20 10 -22 -5 -16 -16 6 -16 4
-4 -11 12 -15 12 -16 -3 -10 -12 4 -18 1 -18 -9 0 -9 -5 -12 -12 -8 -7 4 -8 3
-4 -5 6 -9 11 -9 23 1 15 12 15 11 2 -9 -7 -13 -20 -25 -27 -28 -7 -2 -10 -1
-7 4 3 5 1 13 -5 16 -6 4 -10 3 -9 -2 4 -21 -2 -34 -13 -27 -7 5 -8 3 -4 -5 5
-7 15 -10 25 -7 12 5 11 2 -3 -9 -11 -8 -25 -15 -30 -15 -6 0 -4 5 4 10 8 5
10 10 4 10 -19 0 -24 -13 -11 -28 7 -9 7 -13 1 -9 -6 3 -16 -5 -23 -19 -7 -15
-16 -22 -23 -18 -7 5 -9 2 -5 -8 4 -12 0 -15 -16 -11 -22 5 -22 5 -2 -11 11
-10 14 -15 8 -11 -8 4 -13 0 -13 -10 0 -9 -5 -13 -11 -9 -7 4 -9 0 -5 -14 4
-11 2 -23 -3 -27 -6 -3 -8 0 -5 8 7 19 -12 32 -22 16 -4 -8 -3 -9 4 -5 19 12
14 -12 -5 -24 -17 -11 -17 -11 0 -6 9 3 17 1 17 -4 0 -13 -36 -31 -45 -22 -5
4 -5 2 -2 -4 4 -7 0 -15 -8 -18 -29 -11 -235 -150 -235 -159 0 -4 33 14 73 41
64 43 123 72 148 72 22 0 5 -22 -41 -53 -27 -19 -47 -36 -44 -39 3 -3 -3 -5
-13 -4 -10 0 -17 -5 -15 -12 1 -8 -2 -11 -8 -7 -13 8 -52 -19 -42 -31 4 -5 3
-6 -2 -1 -21 16 -152 -98 -197 -173 -11 -18 -27 -30 -39 -30 -20 0 -20 2 7 38
l28 37 -50 -39 c-27 -22 -63 -52 -80 -66 -16 -15 -41 -33 -54 -40 -20 -10 -23
-17 -18 -55 4 -37 1 -48 -19 -66 -20 -19 -24 -20 -24 -6 0 9 -4 17 -8 17 -10
0 -180 -190 -219 -245 -45 -63 -83 -155 -65 -155 11 0 87 89 116 133 23 37 14
47 -11 12 -35 -52 -71 -90 -78 -83 -16 15 188 263 238 290 16 8 17 7 9 -9 -6
-10 -22 -29 -36 -42 -14 -14 -26 -30 -26 -37 0 -7 42 29 93 79 88 88 108 106
227 207 121 103 319 242 332 234 17 -11 7 -26 -13 -21 -16 4 -18 3 -8 -9 9
-11 8 -15 -5 -20 -9 -3 -13 -11 -10 -16 4 -6 -1 -8 -14 -4 -11 4 -23 3 -26 -2
-3 -6 2 -9 12 -8 9 0 16 -5 15 -11 -2 -7 2 -13 9 -13 6 0 8 -3 5 -6 -4 -4 -15
-1 -24 7 -10 7 -15 9 -11 5 5 -5 -1 -15 -12 -23 -12 -8 -17 -20 -13 -30 4 -11
3 -14 -5 -9 -9 5 -9 1 -2 -18 7 -20 6 -24 -5 -19 -8 3 -12 10 -8 16 4 6 1 7
-6 3 -9 -6 -8 -13 6 -29 10 -11 12 -17 4 -12 -11 6 -13 3 -8 -15 4 -17 3 -20
-6 -11 -16 16 -32 14 -18 -2 17 -21 -6 -39 -33 -26 -21 10 -21 10 -1 -6 17
-13 18 -17 5 -25 -8 -5 -18 -6 -24 -3 -5 4 -6 1 -1 -7 5 -7 -2 -20 -16 -34
-13 -12 -35 -34 -49 -50 l-25 -29 27 17 c15 10 33 14 39 10 7 -4 9 -3 5 4 -11
18 11 23 25 5 8 -9 9 -14 4 -11 -6 4 -19 0 -30 -8 -10 -8 -13 -14 -7 -14 7 0
12 -6 12 -14 0 -10 -7 -13 -20 -11 -12 2 -18 0 -15 -6 4 -5 10 -7 15 -4 5 3
14 -3 19 -14 14 -25 14 -31 0 -31 -5 0 -8 4 -4 9 3 5 1 12 -4 15 -5 4 -8 -2
-7 -11 2 -10 -1 -21 -6 -24 -5 -3 -2 -9 7 -12 10 -5 14 -3 9 5 -4 7 -3 8 4 4
12 -7 5 -36 -9 -36 -5 0 -9 -5 -9 -11 0 -5 5 -7 10 -4 26 16 3 -14 -65 -87
-105 -111 -207 -248 -186 -248 5 0 11 4 13 9 5 14 96 119 156 179 45 47 59 52
53 18 -1 -4 4 -15 11 -24 11 -13 10 -14 -8 -4 -21 11 -22 9 -18 -23 1 -19 -1
-37 -6 -40 -6 -3 -15 -16 -21 -28 -11 -21 -10 -21 15 2 21 20 26 22 26 8 0 -9
-5 -17 -12 -17 -6 0 -8 -3 -4 -7 4 -5 14 1 22 11 8 11 14 15 14 9 0 -7 -4 -14
-9 -17 -5 -3 -8 -20 -7 -37 1 -19 -3 -33 -12 -36 -11 -5 -11 -7 -1 -14 16 -10
41 9 32 24 -3 6 -1 7 6 3 9 -6 9 -11 1 -21 -7 -8 -9 -19 -6 -24 4 -5 1 -13 -5
-17 -8 -5 -9 -3 -4 6 5 8 4 11 -3 7 -17 -11 9 -56 31 -51 15 3 17 1 7 -11 -7
-9 -23 -13 -37 -10 -14 2 -22 1 -18 -3 3 -4 11 -8 16 -8 5 -1 11 -2 14 -3 3 0
1 -10 -5 -21 -7 -12 -16 -18 -23 -13 -8 5 -8 2 1 -9 10 -13 10 -19 -3 -32 -19
-19 -6 -22 15 -3 12 10 12 9 1 -5 -7 -9 -9 -23 -5 -30 5 -10 4 -11 -7 0 -18
16 -34 15 -20 -2 9 -11 4 -21 -21 -47 -18 -19 -31 -37 -30 -41 1 -5 -2 -8 -7
-8 -5 0 -11 -9 -14 -20 -3 -11 -11 -20 -19 -20 -9 0 -10 2 -1 8 6 4 15 20 18
35 4 15 11 27 15 27 4 0 11 12 14 26 5 18 11 24 23 20 14 -6 14 -4 2 10 -12
15 -17 12 -51 -27 -21 -24 -38 -47 -38 -51 0 -5 -5 -8 -11 -8 -5 0 -7 4 -4 10
3 6 -1 7 -9 4 -32 -12 -15 14 44 70 34 31 65 54 70 51 6 -3 7 1 4 9 -6 17 -57
32 -62 18 -7 -23 -68 -116 -78 -119 -6 -2 -11 11 -12 30 -1 28 8 43 59 96 34
34 58 65 55 68 -3 4 -43 -19 -89 -49 -45 -31 -93 -62 -107 -69 -22 -11 -21 -8
11 32 38 47 92 129 85 129 -3 0 -20 -21 -38 -46 -24 -34 -34 -41 -38 -29 -4
13 -10 10 -28 -15 -20 -26 -29 -30 -63 -28 -47 2 -57 13 -36 36 18 20 35 78
20 69 -5 -3 -25 -28 -43 -56 -37 -54 -62 -64 -80 -31 -15 27 7 66 59 108 44
36 57 65 16 38 -13 -9 -27 -16 -30 -16 -3 0 50 64 118 143 155 180 217 256
217 269 0 6 -6 6 -15 -2 -8 -6 -18 -9 -24 -6 -5 3 -40 -36 -77 -87 -136 -183
-167 -219 -175 -205 -10 15 -7 18 -53 -64 -20 -38 -42 -68 -47 -68 -6 0 -7 5
-4 10 4 6 8 27 10 46 3 32 42 91 68 102 4 2 11 11 16 20 8 15 3 17 -33 19 -41
2 -42 1 -108 -87 -40 -51 -99 -114 -144 -149 -90 -73 -192 -128 -199 -109 -40
106 47 266 275 507 101 107 135 134 91 73 -37 -53 -22 -46 20 10 49 62 334
345 407 403 28 22 53 46 56 53 15 34 -165 -126 -338 -302 -65 -67 -122 -121
-127 -121 -27 0 -237 -204 -332 -323 -37 -46 -67 -77 -67 -69 0 11 -9 15 -34
14 -19 -1 -34 -4 -33 -7 1 -3 -3 -6 -8 -8 -6 -2 -20 -12 -32 -24 -43 -40 -43
-12 -1 57 43 70 71 125 64 125 -3 0 -32 -47 -67 -105 -45 -75 -66 -102 -74
-95 -8 7 -22 -3 -45 -32 -32 -39 -100 -137 -100 -143 0 -1 -26 -49 -58 -106
-65 -117 -118 -200 -156 -244 l-25 -30 23 75 c28 89 132 390 152 440 12 31 12
33 -1 16 -20 -26 -140 -339 -165 -431 -18 -63 -59 -179 -59 -167 -1 7 8 66 19
130 32 185 31 179 20 162 -11 -16 -29 -78 -36 -120 -3 -14 -11 -61 -19 -105
-17 -98 -26 -160 -41 -285 -3 -30 -10 -57 -14 -60 -4 -3 -11 -25 -15 -50 -4
-25 -9 -53 -11 -63 -2 -10 -6 -55 -9 -100 -6 -81 -22 -170 -24 -133 -2 42 -13
4 -17 -60 -5 -81 -14 -97 -15 -28 -1 27 -5 60 -9 74 -7 21 -8 18 -10 -20 -2
-54 0 -146 5 -169 1 -9 6 -47 9 -86 4 -38 9 -86 11 -105 2 -19 7 -84 10 -144
4 -60 9 -119 11 -130 2 -12 7 -48 10 -80 4 -33 12 -86 19 -118 10 -48 9 -58
-1 -54 -15 6 -14 -2 22 -169 91 -414 275 -836 522 -1195 36 -52 68 -97 72
-100 3 -3 13 -17 23 -32 75 -119 395 -453 588 -614 52 -43 93 -83 93 -90 -1
-7 7 -9 20 -6 20 5 21 5 3 -15 -19 -22 -8 -41 15 -27 7 4 8 3 4 -4 -4 -7 11
-24 35 -42 81 -58 26 -29 -67 35 -52 37 -94 61 -94 55 0 -5 3 -10 8 -10 4 0
26 -16 48 -35 103 -87 321 -237 416 -284 57 -28 95 -46 84 -39 -10 7 -79 52
-152 100 -73 48 -135 92 -139 98 -3 5 34 -16 82 -49 128 -84 480 -271 513
-271 5 0 10 -6 10 -12 1 -15 92 -73 165 -105 52 -23 95 -29 95 -14 0 5 -10 16
-22 24 -23 16 -22 16 7 7 17 -5 53 -16 80 -25 125 -39 365 -96 470 -110 11 -2
34 -6 50 -8 17 -3 55 -9 85 -12 69 -9 77 -15 19 -15 -62 0 -81 -15 -32 -25 21
-5 41 -9 46 -10 4 -2 14 -3 22 -4 8 0 15 -5 15 -10 0 -4 -21 -5 -48 0 -26 4
-72 10 -102 14 -30 3 -67 8 -82 11 -16 2 -28 2 -28 0 0 -9 75 -25 149 -31 41
-4 83 -8 93 -10 9 -2 20 1 23 6 4 5 12 6 18 2 15 -10 157 -14 157 -5 0 9 -38
33 -70 43 -14 5 1 5 35 1 115 -14 492 -6 627 12 98 14 139 18 193 21 79 4 229
30 284 50 24 8 51 15 61 15 19 0 352 111 480 160 267 103 611 294 860 478 219
162 560 490 560 537 0 26 55 94 132 165 32 29 50 54 52 72 1 15 10 38 20 50
112 151 306 491 287 503 -6 3 -8 15 -6 28 l4 22 -17 -21 c-9 -12 -22 -30 -28
-40 -7 -11 -14 -17 -18 -13 -11 10 35 87 87 145 29 33 60 70 69 84 16 26 34
90 25 90 -3 0 -19 -23 -36 -50 -17 -27 -34 -50 -37 -50 -9 0 2 50 31 145 41
136 41 193 0 78 -21 -59 -52 -90 -35 -36 23 74 62 210 65 223 2 8 13 67 25
130 50 260 58 297 73 333 9 20 21 37 26 37 6 0 10 10 9 23 0 12 2 76 6 142 4
66 4 116 0 113 -3 -4 -8 -30 -10 -59 -5 -56 -22 -101 -25 -64 -1 11 0 25 1 30
3 15 0 304 -4 350 -7 78 -17 174 -21 196 -3 13 -7 39 -10 59 -3 20 -8 47 -10
60 -3 14 -8 41 -10 60 l-5 35 14 -30 c8 -16 21 -39 30 -50 14 -18 15 -17 2 25
-84 279 -183 577 -232 695 -18 44 -44 112 -58 150 -26 70 -26 70 -4 45 13 -14
34 -34 47 -45 28 -23 24 -15 -29 65 -43 63 -60 107 -39 96 8 -4 6 -1 -4 7 -16
13 -16 15 -2 21 11 4 14 2 9 -6 -4 -7 -3 -8 5 -4 15 10 10 37 -9 54 -8 8 -9
11 -2 7 7 -4 21 -1 30 7 15 12 16 11 3 -4 -7 -10 -9 -18 -3 -18 16 0 22 26 9
40 -10 10 -8 12 7 6 17 -6 17 -5 5 10 -12 15 -11 16 10 9 21 -6 22 -5 10 8 -8
8 -17 13 -20 11 -3 -2 -6 3 -6 11 0 12 4 12 20 -2 19 -17 20 -17 10 2 -13 26
-6 45 17 45 10 0 22 5 26 12 5 7 2 9 -9 5 -8 -3 -18 0 -20 7 -3 8 1 13 10 12
9 0 18 5 20 12 3 6 0 12 -7 12 -6 0 -8 -5 -4 -12 4 -7 3 -8 -5 -4 -6 4 -9 12
-5 17 3 5 1 16 -6 24 -9 10 -8 13 4 11 9 -1 19 -6 23 -11 4 -4 2 -5 -6 0 -10
6 -12 4 -7 -4 6 -9 11 -9 22 0 16 13 19 23 4 14 -5 -3 -10 -2 -10 4 0 5 -3 16
-6 24 -3 8 2 17 12 21 14 5 15 4 5 -8 -9 -11 -8 -15 3 -19 11 -4 13 -1 9 10
-5 12 -3 14 8 8 12 -7 12 -6 1 7 -10 13 -10 17 0 22 7 3 1 3 -14 0 -17 -4 -28
-2 -28 5 0 6 3 10 8 10 4 -1 14 -1 22 0 11 1 11 4 2 13 -7 7 -12 17 -12 22 0
6 4 4 10 -4 5 -8 12 -11 16 -7 4 3 2 12 -4 19 -12 15 1 37 33 56 18 11 18 12
-7 8 -15 -3 -30 0 -34 5 -3 5 -2 9 3 8 4 -1 16 -1 26 0 15 1 16 4 6 22 -8 16
-8 20 0 14 8 -4 10 2 7 19 -3 15 -1 24 5 21 5 -4 9 -1 9 4 0 6 5 11 11 11 8 0
8 -5 -1 -15 -7 -8 -8 -15 -4 -15 5 0 15 9 22 21 8 12 9 19 4 15 -5 -3 -17 1
-27 8 -14 10 -15 15 -5 21 9 6 11 4 5 -5 -5 -8 -4 -11 3 -6 6 4 8 14 5 23 -5
12 -2 14 8 9 8 -4 4 0 -7 9 -15 11 -20 23 -17 36 4 16 8 17 14 7 6 -9 8 -6 6
9 0 12 -4 20 -7 18 -3 -2 -12 5 -19 17 -7 11 -8 17 -3 14 14 -9 21 16 10 36
-6 14 -5 16 7 12 19 -8 19 3 0 22 -21 22 -19 34 8 34 17 0 19 2 7 9 -8 6 -18
7 -24 4 -5 -3 -6 -1 -2 6 4 6 11 9 16 6 5 -3 12 0 16 6 4 7 3 9 -3 6 -6 -4
-18 2 -27 12 -11 13 -14 21 -7 26 11 6 15 -1 11 -20 -1 -5 4 -5 11 2 9 9 8 15
-3 27 -9 9 -19 11 -24 6 -6 -6 -9 6 -8 30 0 22 -2 40 -5 40 -4 0 -7 9 -8 20
-2 20 -1 20 15 2 9 -10 13 -12 9 -5 -5 6 -5 18 -1 24 5 8 3 9 -6 4 -10 -6 -12
-4 -6 10 5 15 4 16 -9 5 -9 -7 -18 -10 -22 -6 -3 3 -1 6 5 6 7 0 12 7 12 16 0
9 5 12 12 8 7 -4 8 -3 4 5 -6 9 -11 9 -22 0 -10 -8 -14 -8 -15 0 -1 6 -2 17
-3 24 -1 6 0 17 3 22 3 6 7 18 8 28 3 15 1 16 -11 5 -10 -9 -11 -15 -2 -20 6
-4 7 -8 1 -8 -5 0 -16 4 -23 9 -11 7 -11 9 2 14 22 9 20 28 -1 21 -10 -3 -7 1
6 9 20 12 21 15 7 20 -10 4 -15 11 -12 15 3 5 -1 9 -9 9 -8 0 -12 -4 -10 -8 3
-3 -3 -13 -13 -20 -14 -11 -15 -11 -5 0 6 7 9 20 6 27 -3 8 1 14 8 14 7 0 3 7
-9 16 -17 11 -21 22 -16 37 6 22 6 22 -10 2 -15 -19 -16 -19 -5 10 8 24 8 28
-2 18 -16 -16 -29 -17 -29 -2 0 5 4 8 8 5 4 -2 14 5 21 17 11 18 11 20 0 10
-17 -17 -32 -17 -23 -1 12 19 12 48 1 55 -6 3 -7 1 -3 -5 4 -7 2 -12 -5 -12
-8 0 -8 -4 1 -15 11 -13 10 -14 -1 -10 -8 3 -20 15 -27 26 -8 12 -10 19 -5 16
4 -3 14 1 21 9 8 9 9 14 2 14 -6 0 -9 4 -6 8 3 5 -1 9 -9 9 -12 0 -12 -3 -2
-16 10 -14 10 -14 -4 -4 -9 7 -20 9 -25 5 -5 -4 0 3 10 16 12 13 14 22 7 22
-7 0 -9 5 -5 13 4 6 3 9 -1 4 -5 -4 -19 0 -33 9 -18 12 -26 13 -32 5 -3 -7 -7
2 -7 18 0 26 2 28 12 14 6 -9 18 -13 26 -10 11 4 10 6 -2 6 -9 1 -20 9 -24 19
-6 16 -8 16 -22 -3 -15 -20 -15 -20 -8 2 5 19 3 22 -12 16 -16 -6 -17 -5 -3
12 9 11 10 16 3 11 -8 -4 -13 -2 -13 4 0 6 -4 9 -9 6 -5 -3 -11 1 -15 9 -3 9
-12 12 -23 8 -15 -5 -15 -3 2 10 l20 16 -20 15 c-11 8 -24 15 -30 16 -5 0 -3
-5 5 -10 12 -7 10 -9 -7 -7 -14 1 -19 5 -14 12 4 5 11 17 14 26 4 13 1 16 -16
12 -22 -5 -22 -5 -2 11 20 17 20 17 -2 6 -13 -6 -23 -15 -23 -21 0 -6 -5 -7
-11 -3 -8 4 -8 8 -1 13 6 4 10 16 9 28 -1 15 -7 20 -24 18 -13 -1 -29 5 -35
13 -11 13 -11 14 1 7 11 -6 13 -4 8 9 -4 10 -7 21 -7 24 0 4 -5 0 -10 -8 -6
-9 -10 -10 -10 -3 0 25 20 22 34 -4 8 -15 15 -23 16 -18 0 6 -8 22 -18 37 -13
20 -21 25 -29 17 -8 -8 -13 -7 -18 2 -5 8 -4 10 3 5 7 -4 12 -2 12 3 0 6 -3
11 -7 12 -47 5 -55 10 -57 42 -1 18 -6 23 -19 19 -16 -4 -16 -6 -1 -16 14 -11
14 -13 -3 -27 -16 -13 -17 -12 -5 2 10 14 10 18 -3 23 -9 3 -14 10 -11 15 8
12 -21 34 -34 26 -7 -4 -9 2 -6 19 3 15 1 24 -5 21 -5 -4 -7 -11 -4 -16 4 -5
-1 -9 -9 -9 -14 0 -21 19 -17 43 1 5 -3 6 -9 2 -5 -3 -10 -1 -10 5 0 6 -11 8
-24 6 -19 -3 -23 -1 -19 11 5 12 3 14 -7 8 -8 -5 -11 -4 -6 3 3 6 2 13 -4 17
-6 4 -7 11 -4 17 5 7 2 8 -6 3 -10 -6 -12 -4 -7 9 5 14 3 15 -12 6 -11 -5 -22
-15 -24 -22 -3 -7 -6 -3 -6 10 -1 13 -7 22 -17 22 -8 0 -12 -4 -9 -10 3 -5 1
-10 -4 -10 -14 0 -14 17 0 26 8 4 7 9 -2 15 -9 6 -18 3 -26 -8 -7 -9 -13 -12
-13 -5 0 7 -8 12 -17 12 -15 0 -16 2 -3 10 9 6 17 5 23 -3 6 -8 7 -6 3 6 -3
10 -6 22 -6 25 0 4 -4 1 -9 -7 -5 -8 -15 -12 -22 -9 -8 3 -18 6 -23 6 -5 0
-13 6 -18 14 -7 10 -11 9 -23 -6 -15 -19 -15 -19 -15 2 0 12 5 22 12 22 6 0 9
3 5 6 -9 9 -48 -22 -39 -32 4 -4 -1 -2 -10 5 -10 7 -18 10 -18 5 0 -5 -5 -1
-11 9 -6 10 -15 14 -22 10 -7 -4 -3 6 7 22 16 24 16 27 3 16 -15 -12 -21 -9
-19 10 1 3 -14 5 -32 4 -33 -1 -33 0 -19 25 10 17 11 20 2 9 -16 -18 -43 -14
-32 4 4 7 -1 6 -10 -2 -18 -14 -23 -26 -8 -16 5 3 12 1 15 -3 3 -5 -7 -8 -21
-7 -26 1 -46 30 -35 49 3 5 0 6 -6 2 -6 -3 -14 -2 -17 4 -5 8 -14 6 -30 -4
-15 -10 -26 -12 -30 -6 -6 10 -5 11 14 14 5 0 12 4 15 9 3 4 3 5 0 2 -4 -2
-20 5 -37 17 -17 12 -28 17 -24 12 3 -5 1 -16 -5 -24 -8 -13 -9 -12 -5 1 3 9
-1 26 -9 38 -9 12 -11 21 -5 21 6 0 11 -4 11 -10 0 -5 5 -10 11 -10 6 0 8 7 5
16 -6 15 -4 15 11 3 16 -13 16 -12 -1 15 -10 16 -14 26 -8 22 5 -3 17 3 27 14
15 16 21 18 33 7 11 -8 14 -8 9 0 -4 7 1 14 13 18 23 7 27 43 8 64 -11 11 -10
12 0 6 7 -4 18 -17 23 -29 8 -19 9 -18 6 7 -4 23 -2 25 11 15 13 -11 15 -10 9
5 -4 10 -3 16 2 12 5 -3 17 3 27 12 17 17 18 17 11 -1 -6 -16 -4 -17 15 -11
13 3 28 7 35 7 7 1 9 6 5 12 -10 17 -11 37 -1 30 5 -3 9 0 9 6 0 7 6 10 13 7
6 -2 18 3 25 12 9 11 8 3 -3 -24 -13 -35 -13 -38 0 -21 8 11 15 24 15 29 0 4
4 6 10 2 5 -3 6 -13 3 -22 -6 -15 -5 -16 9 -3 9 8 14 18 12 21 -2 3 3 6 11 6
13 0 12 -4 -2 -19 -18 -20 -5 -25 16 -5 12 10 13 8 7 -8 -4 -11 -4 -16 0 -12
4 4 14 1 23 -6 14 -11 14 -10 2 6 -12 15 -12 17 3 11 9 -3 16 -13 16 -21 0 -8
5 -11 10 -8 6 4 8 10 6 14 -3 4 1 8 9 8 11 0 12 -4 4 -13 -14 -17 -3 -35 16
-27 9 3 15 -1 15 -10 0 -10 -7 -13 -19 -10 -10 3 -21 1 -24 -4 -7 -11 46 -8
64 2 7 5 10 4 5 -3 -3 -5 -3 -12 1 -15 5 -2 3 -2 -4 -1 -7 2 -15 -1 -18 -5 -3
-5 8 -8 23 -7 22 1 28 -3 30 -18 0 -11 -4 -26 -10 -33 -7 -9 -7 -13 1 -13 6 0
11 5 11 11 0 8 4 8 13 0 10 -8 17 -7 25 1 13 13 17 -2 5 -18 -5 -5 2 0 13 11
20 19 20 21 5 39 -11 14 -12 17 -2 11 11 -6 13 -4 8 9 -5 13 -3 17 7 13 10 -4
13 -1 9 9 -6 17 -8 17 -36 3 -20 -9 -20 -9 -4 4 19 16 24 32 5 21 -7 -4 -8 -3
-4 5 6 8 12 9 20 2 9 -8 13 -7 13 2 0 13 -6 15 -47 19 -26 3 -26 18 0 18 19 0
19 2 8 23 -7 12 -13 29 -13 37 -1 8 -6 14 -13 13 -7 -2 -12 2 -12 7 0 6 5 10
12 10 6 0 8 3 5 6 -4 4 -13 1 -22 -6 -13 -11 -14 -10 -9 5 6 14 4 16 -7 10
-12 -7 -12 -6 -1 7 10 12 10 17 -1 26 -10 8 -17 8 -24 1 -8 -8 -14 -6 -22 9
-6 10 -7 23 -3 27 4 5 2 5 -5 1 -6 -3 -17 2 -23 11 -11 17 -11 17 -6 1 6 -20
-2 -22 -23 -9 -9 6 -23 6 -35 0 -21 -10 -21 -10 -2 5 11 9 16 16 10 16 -5 0
-2 5 6 11 12 9 12 10 -4 5 -14 -5 -17 -2 -12 9 3 10 2 13 -5 10 -6 -4 -8 -14
-5 -22 4 -9 1 -13 -6 -11 -6 2 -12 12 -14 22 -1 10 -8 24 -15 30 -9 8 -9 6 0
-11z m129 -104 c-3 -8 -7 -3 -11 10 -4 17 -3 21 5 13 5 -5 8 -16 6 -23z m-333
11 c3 -6 -1 -7 -9 -4 -18 7 -21 14 -7 14 6 0 13 -4 16 -10z m295 6 c0 -3 -4
-8 -10 -11 -5 -3 -10 -1 -10 4 0 6 5 11 10 11 6 0 10 -2 10 -4z m95 -26 c3 -5
1 -10 -4 -10 -6 0 -11 5 -11 10 0 6 2 10 4 10 3 0 8 -4 11 -10z m-20 -28 c-3
-3 -11 0 -18 7 -9 10 -8 11 6 5 10 -3 15 -9 12 -12z m-2331 -34 c-6 -9 -44 -6
-44 3 0 4 11 6 24 5 13 0 22 -4 20 -8z m1806 -13 c14 -18 13 -19 -1 -8 -9 7
-19 10 -23 6 -4 -4 -4 1 0 10 3 10 7 17 8 15 1 -2 8 -12 16 -23z m580 1 c-7
-7 -13 -7 -20 0 -6 6 -3 10 10 10 13 0 16 -4 10 -10z m-2493 -22 c-3 -3 -12
-4 -19 -1 -8 3 -5 6 6 6 11 1 17 -2 13 -5z m523 -19 c-7 -9 -15 -13 -17 -11
-6 6 20 36 26 30 2 -2 -2 -10 -9 -19z m1370 21 c0 -2 -8 -10 -17 -17 -16 -13
-17 -12 -4 4 13 16 21 21 21 13z m615 -5 c3 -5 0 -13 -6 -17 -8 -5 -9 -3 -4 6
6 9 1 10 -16 5 -19 -5 -21 -4 -9 4 19 13 27 14 35 2z m-2061 -27 c3 -8 0 -11
-10 -7 -7 3 -14 0 -14 -6 0 -6 -4 -11 -9 -11 -7 0 -8 29 -2 36 6 6 31 -3 35
-12z m1730 0 c3 -8 2 -12 -4 -9 -6 3 -10 1 -10 -6 0 -7 -2 -10 -5 -7 -5 5 4
38 10 38 2 0 6 -7 9 -16z m-1484 -9 c0 -12 -19 -12 -23 0 -4 9 -1 12 9 8 7 -3
14 -7 14 -8z m287 -12 c0 -13 -3 -12 -15 3 -14 18 -14 18 -9 -5 4 -17 3 -21
-5 -13 -14 14 -2 43 15 36 7 -2 14 -12 14 -21z m36 0 c-3 -7 -6 -13 -8 -13 -2
0 -5 6 -8 13 -3 8 1 14 8 14 7 0 11 -6 8 -14z m-106 -8 c0 -8 -4 -15 -9 -15
-10 0 -11 14 -1 23 9 10 10 9 10 -8z m900 -41 c-3 -3 -12 -4 -19 -1 -8 3 -5 6
6 6 11 1 17 -2 13 -5z m-570 -19 c0 -8 -4 -12 -9 -9 -5 3 -6 10 -3 15 9 13 12
11 12 -6z m-1657 -6 c0 -5 -4 -7 -10 -4 -5 3 -10 1 -10 -4 0 -6 -5 -11 -11
-11 -8 0 -8 5 1 15 14 17 30 20 30 4z m2466 4 c-9 -9 -57 -12 -51 -4 2 4 16 8
31 9 15 1 24 -1 20 -5z m468 -44 c9 14 26 14 26 0 0 -5 -4 -8 -9 -4 -5 3 -12
1 -16 -5 -8 -13 -25 -3 -25 13 0 8 3 8 9 -2 6 -9 11 -10 15 -2z m-935 -43 c9
-11 9 -16 -1 -22 -7 -4 -10 -4 -6 1 4 4 -2 16 -14 27 -17 14 -23 16 -30 6 -4
-8 -8 -8 -8 -2 0 28 32 23 59 -10z m-2129 -31 c0 -2 -6 -8 -13 -14 -10 -8 -14
-7 -14 2 0 8 6 14 14 14 7 0 13 -1 13 -2z m2285 -5 c3 -6 -1 -7 -9 -4 -18 7
-21 14 -7 14 6 0 13 -4 16 -10z m-2352 -15 c-3 -9 -8 -14 -10 -11 -3 3 -2 9 2
15 9 16 15 13 8 -4z m2601 -26 c-8 -14 -24 -10 -24 6 0 9 6 12 15 9 8 -4 12
-10 9 -15z m76 -40 c0 -5 -5 -9 -11 -9 -5 0 -8 4 -4 9 3 5 1 12 -5 16 -5 3
-10 1 -10 -6 0 -7 -3 -10 -6 -6 -3 3 -3 11 1 17 7 12 35 -5 35 -21z m135 -52
c15 -12 16 -15 4 -22 -8 -5 -10 -4 -6 0 4 5 -3 15 -15 22 -13 7 -18 12 -12 13
5 0 18 -6 29 -13z m138 -88 c-9 -9 -12 -7 -10 9 1 14 5 18 11 12 7 -7 6 -14
-1 -21z m-3173 11 c0 -5 -2 -10 -4 -10 -3 0 -8 5 -11 10 -3 6 -1 10 4 10 6 0
11 -4 11 -10z m3205 1 c3 -5 2 -12 -3 -15 -5 -3 -9 1 -9 9 0 17 3 19 12 6z
m-3255 -67 c0 -8 -19 -13 -24 -6 -3 5 1 9 9 9 8 0 15 -2 15 -3z m3410 -14 c8
-15 8 -18 -3 -14 -8 3 -14 11 -14 19 0 20 4 19 17 -5z m85 -69 c3 -6 -3 -9
-14 -8 -11 0 -17 5 -15 9 7 11 22 10 29 -1z m-3706 -121 c-7 -5 -19 -6 -27 -2
-11 4 -13 1 -7 -9 4 -8 5 -11 0 -7 -4 4 -15 3 -24 -3 -9 -6 -4 0 12 14 16 16
34 24 43 20 12 -4 13 -8 3 -13z m3965 -131 c-3 -5 -10 -7 -15 -3 -5 3 -7 10
-3 15 3 5 10 7 15 3 5 -3 7 -10 3 -15z m46 -43 c0 -3 -4 -8 -10 -11 -5 -3 -10
-1 -10 4 0 6 5 11 10 11 6 0 10 -2 10 -4z m44 -44 c2 -4 -5 -9 -17 -9 -17 -2
-19 0 -7 7 18 12 18 12 24 2z m-4279 -150 c-3 -3 -11 0 -18 7 -9 10 -8 11 6 5
10 -3 15 -9 12 -12z m4429 -33 c-3 -5 -10 -7 -15 -3 -5 3 -7 10 -3 15 3 5 10
7 15 3 5 -3 7 -10 3 -15z m111 -209 c3 -5 1 -10 -4 -10 -6 0 -11 5 -11 10 0 6
2 10 4 10 3 0 8 -4 11 -10z m40 -50 c3 -5 1 -10 -4 -10 -6 0 -11 5 -11 10 0 6
2 10 4 10 3 0 8 -4 11 -10z m-4851 -106 c3 -8 2 -12 -4 -9 -6 3 -10 10 -10 16
0 14 7 11 14 -7z m-121 -271 c3 -5 -5 -8 -18 -8 -13 0 -21 3 -18 8 2 4 10 7
18 7 8 0 16 -3 18 -7z m5037 -183 c0 -5 -2 -10 -4 -10 -3 0 -8 5 -11 10 -3 6
-1 10 4 10 6 0 11 -4 11 -10z m-5235 -429 c3 -5 2 -12 -3 -15 -5 -3 -9 1 -9 9
0 17 3 19 12 6z m27 -318 c-6 -3 -9 -10 -6 -15 4 -7 2 -8 -5 -4 -9 6 -9 11 0
22 6 8 15 12 18 8 3 -4 0 -9 -7 -11z m-105 -205 c-3 -8 -6 -5 -6 6 -1 11 2 17
5 13 3 -3 4 -12 1 -19z m-37 -27 c0 -5 -7 -12 -16 -15 -14 -5 -15 -4 -4 9 14
17 20 19 20 6z m5286 -2527 c-33 -94 -138 -309 -199 -411 -112 -186 -275 -400
-374 -493 l-48 -45 40 45 c22 24 44 47 48 51 5 3 9 13 11 21 1 8 20 37 42 64
106 127 299 418 292 440 -1 5 27 68 62 139 94 191 165 298 126 189z m-658
-994 c-7 -11 -19 -22 -28 -25 -8 -4 -4 5 9 19 29 31 36 33 19 6z m-4778 -484
c0 -2 -7 -7 -16 -10 -8 -3 -12 -2 -9 4 6 10 25 14 25 6z m1790 -732 c0 -8 -19
-13 -24 -6 -3 5 1 9 9 9 8 0 15 -2 15 -3z"/>
<path d="M9876 12148 c3 -5 10 -6 15 -3 13 9 11 12 -6 12 -8 0 -12 -4 -9 -9z"/>
<path d="M10310 12115 c0 -8 2 -15 4 -15 2 0 6 7 10 15 3 8 1 15 -4 15 -6 0
-10 -7 -10 -15z"/>
<path d="M9826 12074 c-5 -14 -4 -15 9 -4 17 14 19 20 6 20 -5 0 -12 -7 -15
-16z"/>
<path d="M9795 12070 c-3 -5 -1 -10 4 -10 6 0 11 5 11 10 0 6 -2 10 -4 10 -3
0 -8 -4 -11 -10z"/>
<path d="M8438 12013 c6 -2 10 -8 7 -13 -3 -5 3 -7 12 -6 9 2 19 9 21 17 3 12
2 12 -6 0 -7 -9 -12 -10 -16 -2 -4 6 -13 11 -19 10 -9 0 -8 -2 1 -6z"/>
<path d="M7765 11999 c-4 -6 -4 -13 -1 -16 3 -4 6 -1 6 6 0 7 5 9 12 5 7 -4 8
-3 4 4 -9 15 -13 15 -21 1z"/>
<path d="M10097 11983 c-4 -3 -7 -11 -7 -17 0 -6 5 -5 12 2 6 6 9 14 7 17 -3
3 -9 2 -12 -2z"/>
<path d="M7647 11962 c-19 -21 -22 -35 -6 -30 6 2 10 7 9 12 -1 5 4 12 11 17
8 4 11 10 8 14 -3 3 -13 -3 -22 -13z"/>
<path d="M8740 11931 c0 -6 4 -13 10 -16 6 -3 7 1 4 9 -7 18 -14 21 -14 7z"/>
<path d="M9161 11898 c-13 -20 -12 -22 1 -11 8 7 18 10 22 6 4 -4 4 0 0 10 -8
21 -6 21 -23 -5z"/>
<path d="M9276 11897 c3 -10 9 -15 12 -12 3 3 0 11 -7 18 -10 9 -11 8 -5 -6z"/>
<path d="M9610 11851 c0 -5 7 -12 16 -15 14 -5 15 -4 4 9 -14 17 -20 19 -20 6z"/>
<path d="M10450 11850 c0 -5 5 -10 11 -10 5 0 7 5 4 10 -3 6 -8 10 -11 10 -2
0 -4 -4 -4 -10z"/>
<path d="M10337 11833 c3 -7 6 -13 8 -13 2 0 5 6 8 13 3 8 -1 14 -8 14 -7 0
-11 -6 -8 -14z"/>
<path d="M9877 11820 c-14 -13 -15 -20 -6 -26 8 -4 10 -3 5 4 -4 7 -3 12 3 12
5 0 11 -6 14 -12 2 -7 4 -1 4 15 0 15 0 27 -1 26 0 0 -9 -8 -19 -19z"/>
<path d="M7340 11810 c0 -5 7 -7 15 -4 8 4 15 8 15 10 0 2 -7 4 -15 4 -8 0
-15 -4 -15 -10z"/>
<path d="M9550 11769 c0 -5 5 -7 10 -4 6 3 10 8 10 11 0 2 -4 4 -10 4 -5 0
-10 -5 -10 -11z"/>
<path d="M9514 11752 c18 -21 29 -23 27 -5 -1 4 -4 8 -8 8 -5 0 -15 4 -23 9
-9 6 -7 1 4 -12z"/>
<path d="M7215 11728 c1 -13 6 -21 11 -19 10 3 7 21 -5 34 -4 4 -7 -3 -6 -15z"/>
<path d="M9977 11693 c-11 -10 -8 -45 3 -38 5 3 6 13 3 22 -5 12 -3 14 7 8 9
-5 11 -4 6 3 -8 14 -10 14 -19 5z"/>
<path d="M10120 11596 c0 -3 9 -10 19 -16 15 -7 22 -7 27 2 4 7 4 10 -1 6 -4
-4 -16 -3 -26 3 -11 5 -19 7 -19 5z"/>
<path d="M6966 11528 c3 -5 10 -6 15 -3 13 9 11 12 -6 12 -8 0 -12 -4 -9 -9z"/>
<path d="M10375 11510 c3 -5 8 -10 11 -10 2 0 4 5 4 10 0 6 -5 10 -11 10 -5 0
-7 -4 -4 -10z"/>
<path d="M10445 11470 c-3 -5 -1 -10 4 -10 6 0 11 5 11 10 0 6 -2 10 -4 10 -3
0 -8 -4 -11 -10z"/>
<path d="M6890 11448 c0 -11 12 -10 30 2 12 7 10 9 -8 7 -12 0 -22 -5 -22 -9z"/>
<path d="M10456 11435 c4 -8 8 -15 10 -15 2 0 4 7 4 15 0 8 -4 15 -10 15 -5 0
-7 -7 -4 -15z"/>
<path d="M6850 11416 c0 -2 7 -7 16 -10 8 -3 12 -2 9 4 -6 10 -25 14 -25 6z"/>
<path d="M6795 11359 c-4 -6 -5 -12 -2 -15 2 -3 7 2 10 11 7 17 1 20 -8 4z"/>
<path d="M6786 11318 c3 -5 10 -6 15 -3 13 9 11 12 -6 12 -8 0 -12 -4 -9 -9z"/>
<path d="M10644 11283 c3 -4 18 -8 32 -9 14 -2 24 0 20 3 -3 3 -17 7 -32 9
-14 1 -23 0 -20 -3z"/>
<path d="M6670 11196 c0 -2 7 -7 16 -10 8 -3 12 -2 9 4 -6 10 -25 14 -25 6z"/>
<path d="M6595 11070 c-3 -5 -1 -10 4 -10 6 0 11 5 11 10 0 6 -2 10 -4 10 -3
0 -8 -4 -11 -10z"/>
<path d="M10870 11041 c0 -6 4 -12 8 -15 5 -3 9 1 9 9 0 8 -4 15 -9 15 -4 0
-8 -4 -8 -9z"/>
<path d="M6582 11001 c-8 -4 -14 -12 -15 -17 -1 -5 -5 -8 -9 -7 -4 2 -4 -5 -1
-14 5 -12 3 -14 -7 -8 -9 5 -11 4 -6 -4 10 -15 23 -6 41 30 17 32 17 33 -3 20z"/>
<path d="M5802 10846 c-117 -72 -248 -173 -238 -183 2 -3 38 20 79 49 41 29
113 77 160 106 67 43 158 116 136 111 -2 -1 -64 -38 -137 -83z"/>
<path d="M6175 10750 c-116 -58 -229 -132 -239 -157 -3 -6 55 25 127 69 73 45
152 92 177 105 41 22 70 43 60 43 -3 0 -59 -27 -125 -60z"/>
<path d="M6385 10752 c3 -3 -2 -10 -11 -16 -13 -10 -13 -12 5 -12 11 0 17 4
15 8 -3 4 0 8 5 8 6 0 11 4 11 8 0 5 -7 9 -15 9 -8 0 -13 -3 -10 -5z"/>
<path d="M11173 10515 c0 -8 4 -12 9 -9 4 3 8 9 8 15 0 5 -4 9 -8 9 -5 0 -9
-7 -9 -15z"/>
<path d="M11215 10371 c-3 -5 -2 -12 3 -15 5 -3 9 1 9 9 0 17 -3 19 -12 6z"/>
<path d="M5959 10343 c-13 -16 -12 -17 4 -4 16 13 21 21 13 21 -2 0 -10 -8
-17 -17z"/>
<path d="M5558 10309 c-32 -32 -35 -41 -11 -32 11 4 14 3 9 -6 -4 -6 -15 -10
-24 -7 -11 4 -33 -12 -64 -47 -206 -227 -231 -283 -41 -87 169 173 175 180
151 161 -23 -17 -23 -3 -1 21 27 29 11 27 -19 -3z"/>
<path d="M5093 10202 c-96 -102 -139 -156 -168 -213 -20 -39 -17 -36 50 46 27
33 69 80 94 105 46 47 131 147 131 155 0 16 -25 -6 -107 -93z"/>
<path d="M11230 10226 c0 -3 9 -10 20 -16 11 -6 20 -8 20 -6 0 3 -9 10 -20 16
-11 6 -20 8 -20 6z"/>
<path d="M11243 10147 c-9 -18 -8 -24 2 -24 8 0 11 7 7 15 -3 10 -1 13 6 8 8
-5 10 -2 6 8 -8 21 -9 20 -21 -7z"/>
<path d="M5941 10113 c-20 -21 -43 -47 -51 -58 -14 -19 -14 -19 5 -5 45 34
109 100 97 100 -8 0 -30 -17 -51 -37z"/>
<path d="M5723 9965 c-18 -13 -63 -85 -63 -101 0 -7 94 95 98 107 5 14 -11 11
-35 -6z"/>
<path d="M11227 9929 c7 -7 15 -10 18 -7 3 3 -2 9 -12 12 -14 6 -15 5 -6 -5z"/>
<path d="M5263 9885 c-52 -46 -114 -123 -127 -160 -8 -22 7 -10 99 80 112 109
134 173 28 80z"/>
<path d="M11191 9827 c-6 -8 -8 -17 -4 -20 12 -13 22 -7 20 13 -2 24 -1 24
-16 7z"/>
<path d="M5970 9770 c-9 -6 -10 -10 -3 -10 6 0 15 5 18 10 8 12 4 12 -15 0z"/>
<path d="M5314 9603 c-9 -15 -26 -37 -36 -48 -31 -33 -78 -121 -78 -146 0 -18
6 -12 26 26 15 28 41 70 58 95 30 43 60 100 52 100 -2 0 -12 -12 -22 -27z"/>
<path d="M11105 9560 c-8 -13 9 -20 24 -11 10 6 9 10 -3 14 -8 3 -18 2 -21 -3z"/>
<path d="M11137 9193 c15 -38 32 -77 40 -88 12 -18 13 -15 13 28 0 29 -4 46
-10 42 -5 -3 -20 14 -32 39 -33 69 -40 55 -11 -21z"/>
<path d="M5917 9193 c-4 -3 -7 -11 -7 -17 0 -6 5 -5 12 2 6 6 9 14 7 17 -3 3
-9 2 -12 -2z"/>
<path d="M4265 8743 c-4 -10 -8 -48 -10 -84 -3 -58 -1 -68 14 -72 21 -5 50 9
68 32 9 13 8 20 -7 36 -10 11 -27 39 -38 63 -16 35 -21 40 -27 25z"/>
<path d="M4180 8645 c-1 -33 -3 -69 -5 -80 -15 -74 -22 -693 -11 -929 3 -65 3
-117 1 -114 -3 3 -21 49 -40 104 -19 54 -35 95 -35 89 0 -14 23 -133 65 -329
15 -69 25 -151 25 -197 0 -51 4 -79 11 -79 7 0 10 14 7 35 -5 47 8 45 17 -2 5
-21 9 -42 11 -48 1 -5 16 -65 33 -131 31 -126 103 -357 126 -409 14 -32 66
-206 94 -312 9 -35 22 -63 28 -63 10 0 9 10 -3 40 -21 53 -11 63 12 13 35 -74
156 -288 223 -392 59 -94 167 -241 176 -241 4 0 -82 155 -182 330 -86 151
-115 229 -121 325 -3 61 -11 93 -32 135 -81 161 -198 458 -264 665 -15 50 -14
91 5 152 6 18 7 38 4 44 -6 9 -32 157 -50 284 -2 17 -7 46 -9 65 -3 19 -8 71
-11 115 -4 44 -8 96 -10 115 -5 42 -12 165 -21 350 -3 74 -7 153 -9 175 -1 22
-6 92 -10 155 -4 63 -10 133 -15 155 -7 39 -8 38 -10 -20z"/>
<path d="M4966 5755 c85 -125 233 -307 300 -370 73 -70 114 -105 121 -105 4 0
-16 24 -44 53 -43 44 -172 193 -340 392 -81 96 -85 99 -37 30z"/>
<path d="M5540 5126 c0 -2 8 -10 18 -17 15 -13 16 -12 3 4 -13 16 -21 21 -21
13z"/>
<path d="M6345 4511 c124 -61 399 -142 555 -165 60 -9 4 10 -100 34 -52 12
-183 51 -290 87 -244 81 -236 78 -165 44z"/>
<path d="M7158 4303 c7 -3 16 -2 19 1 4 3 -2 6 -13 5 -11 0 -14 -3 -6 -6z"/>
<path d="M8409 4286 c-5 -4 -86 -17 -139 -21 -67 -5 -130 -17 -130 -25 0 -9
29 -6 170 16 52 8 99 19 104 24 9 9 4 15 -5 6z"/>
<path d="M7100 4247 c9 -9 212 -36 325 -44 116 -7 199 -8 328 -3 129 5 86 15
-65 16 -136 0 -379 10 -443 18 -118 15 -149 17 -145 13z"/>
<path d="M8105 4230 c-3 -6 1 -7 9 -4 18 7 21 14 7 14 -6 0 -13 -4 -16 -10z"/>
<path d="M7858 4213 c7 -3 16 -2 19 1 4 3 -2 6 -13 5 -11 0 -14 -3 -6 -6z"/>
</g>
</svg>
